<svg xmlns="http://www.w3.org/2000/svg" width="800" height="640" fill="none" viewBox="0 0 800 640"><svg width="300" height="300" x="250" y="40" overflow="visible" viewBox="0 0 512 512"><defs><linearGradient id="a" x1="80" x2="432" y1="96" y2="416" gradientUnits="userSpaceOnUse"><stop stop-color="#53a3e9"/><stop offset="1" stop-color="#1570ef"/></linearGradient><linearGradient id="b" x1="200" x2="312" y1="200" y2="262" gradientUnits="userSpaceOnUse"><stop stop-color="#fff"/><stop offset="1" stop-color="#e4eefb"/></linearGradient></defs><rect width="368" height="320" x="72" y="96" fill="url(#a)" rx="50"/><rect width="368" height="320" x="72" y="96" fill="#0f1729" opacity=".05" rx="50"/><path fill="#175cd3" d="M72 146a50 50 0 0 1 50-50h268a50 50 0 0 1 50 50v22H72z"/><circle cx="116" cy="132" r="12" fill="#fff" opacity=".95"/><circle cx="152" cy="132" r="12" fill="#fff" opacity=".6"/><circle cx="188" cy="132" r="12" fill="#fff" opacity=".38"/><path fill="#1570ef" d="m188 234 68 39v82l-68-39z"/><path fill="#175cd3" d="m324 234-68 39v82l68-39z"/><path fill="#0f1729" d="M256 273v82l-9-5v-82z" opacity=".18"/><path fill="url(#b)" d="m256 195 68 39-68 39-68-39z"/><path fill="#fff" d="m256 195 68 39-22 12-68-39z" opacity=".9"/><path fill="#0f1729" d="M308 303v74l18-19 13 27 14-7-13-27 26-5z" opacity=".18"/><path fill="#fff" d="M306 300v74l18-19 13 27 14-7-13-27 26-5z"/></svg><text x="400" y="470" font-family="'DejaVu Sans','Segoe UI',Arial,sans-serif" font-size="132" font-weight="bold" letter-spacing="-4" text-anchor="middle"><tspan fill="#0f1729">Cargo</tspan><tspan fill="#1570ef">soft</tspan></text><text x="400" y="520" fill="#737373" font-family="'DejaVu Sans','Segoe UI',Arial,sans-serif" font-size="29" font-weight="500" letter-spacing="6" text-anchor="middle">CARGO CRM &amp; AUTOMATION</text></svg>